<svg width="24" height="24" viewBox="0 0 24 24" fill="none" xmlns="http://www.w3.org/2000/svg">
<circle cx="12" cy="12" r="10" fill="url(#paint0_linear_232_516)"/>
<path fill-rule="evenodd" clip-rule="evenodd" d="M8.20749 7.29102H12.0168C14.3339 7.29102 16.0903 8.53643 16.7437 10.3487H17.9303V11.444H16.9936C17.0119 11.6171 17.0213 11.7934 17.0213 11.9726V11.9995C17.0213 12.2012 17.0094 12.3995 16.9862 12.5937H17.9303V13.6891H16.7211C16.0505 15.4761 14.3077 16.7096 12.0168 16.7096H8.20749V13.6891H6.88379V12.5937H8.20749V11.444H6.88379V10.3487H8.20749V7.29102ZM9.27242 13.6891V15.727H12.0168C13.7103 15.727 14.9685 14.9108 15.5542 13.6891H9.27242ZM15.8805 12.5937H9.27242V11.444H15.8822C15.9067 11.6249 15.9192 11.8104 15.9192 11.9995V12.0264C15.9192 12.2199 15.9061 12.4093 15.8805 12.5937ZM12.0168 8.272C13.7181 8.272 14.9801 9.10976 15.5623 10.3487H9.27242V8.272H12.0168Z" fill="white"/>
<defs>
<linearGradient id="paint0_linear_232_516" x1="12" y1="-0.833333" x2="12" y2="24.1" gradientUnits="userSpaceOnUse">
<stop stop-color="#F9A606"/>
<stop offset="1" stop-color="#FBCC5F"/>
</linearGradient>
</defs>
</svg>
