<svg width="24" height="24" viewBox="0 0 24 24" fill="none" xmlns="http://www.w3.org/2000/svg">
<path d="M12 22C17.5228 22 22 17.5228 22 12C22 6.47715 17.5228 2 12 2C6.47715 2 2 6.47715 2 12C2 17.5228 6.47715 22 12 22Z" fill="#2775CA"/>
<path d="M10.1667 18.9162C10.1667 19.1662 10 19.2495 9.75 19.2495C6.66667 18.2495 4.5 15.4162 4.5 12.0829C4.5 8.74954 6.66667 5.91621 9.75 4.91621C10 4.83288 10.1667 4.99954 10.1667 5.24954V5.83288C10.1667 5.99954 10.0833 6.16621 9.91667 6.24954C7.5 7.16621 5.83333 9.41621 5.83333 12.0829C5.83333 14.7495 7.58333 17.0829 9.91667 17.9162C10.0833 17.9995 10.1667 18.1662 10.1667 18.3329V18.9162Z" fill="white"/>
<path d="M12.6663 16.834C12.6663 17.0007 12.4997 17.1673 12.333 17.1673H11.6663C11.4997 17.1673 11.333 17.0007 11.333 16.834V15.834C9.99967 15.6673 9.33301 14.9173 9.08301 13.834C9.08301 13.6673 9.16634 13.5007 9.33301 13.5007H10.083C10.2497 13.5007 10.333 13.584 10.4163 13.7507C10.583 14.334 10.9163 14.834 11.9997 14.834C12.833 14.834 13.4163 14.4173 13.4163 13.7507C13.4163 13.084 13.083 12.834 11.9163 12.6673C10.1663 12.4173 9.33301 11.9173 9.33301 10.5007C9.33301 9.41732 10.1663 8.58398 11.333 8.41732V7.41732C11.333 7.25065 11.4997 7.08398 11.6663 7.08398H12.333C12.4997 7.08398 12.6663 7.25065 12.6663 7.41732V8.41732C13.6663 8.58398 14.333 9.16732 14.4997 10.084C14.4997 10.2507 14.4163 10.4173 14.2497 10.4173H13.583C13.4163 10.4173 13.333 10.334 13.2497 10.1673C13.083 9.58398 12.6663 9.33398 11.9163 9.33398C11.083 9.33398 10.6663 9.75065 10.6663 10.334C10.6663 10.9173 10.9163 11.2507 12.1663 11.4173C13.9163 11.6673 14.7497 12.1673 14.7497 13.584C14.7497 14.6673 13.9163 15.584 12.6663 15.834V16.834V16.834Z" fill="white"/>
<path d="M14.2497 19.2493C13.9997 19.3327 13.833 19.166 13.833 18.916V18.3327C13.833 18.166 13.9163 17.9993 14.083 17.916C16.4997 16.9993 18.1663 14.7493 18.1663 12.0827C18.1663 9.41602 16.4163 7.08268 14.083 6.24935C13.9163 6.16602 13.833 5.99935 13.833 5.83268V5.24935C13.833 4.99935 13.9997 4.91602 14.2497 4.91602C17.2497 5.91602 19.4997 8.74935 19.4997 12.0827C19.4997 15.416 17.333 18.2493 14.2497 19.2493Z" fill="white"/>
</svg>
